<?xml version="1.0" standalone="no"?>
<!DOCTYPE svg PUBLIC "-//W3C//DTD SVG 20010904//EN"
 "http://www.w3.org/TR/2001/REC-SVG-20010904/DTD/svg10.dtd">
<svg version="1.0" xmlns="http://www.w3.org/2000/svg"
 width="512.000000pt" height="512.000000pt" viewBox="0 0 512.000000 512.000000"
 preserveAspectRatio="xMidYMid meet">
<metadata>
Created by potrace 1.14, written by Peter Selinger 2001-2017
</metadata>
<g transform="translate(0.000000,512.000000) scale(0.100000,-0.100000)"
fill="#000000" stroke="none">
<path d="M2365 5114 c-16 -2 -73 -9 -125 -15 -444 -50 -924 -254 -1285 -546
-122 -99 -300 -277 -397 -398 -284 -355 -474 -804 -540 -1275 -17 -125 -17
-515 0 -640 66 -471 256 -920 540 -1275 415 -517 1011 -853 1682 -947 125 -17
515 -17 640 0 478 67 925 258 1285 549 122 99 300 277 397 398 284 355 474
804 540 1275 17 125 17 515 0 640 -66 471 -256 920 -540 1275 -407 508 -994
843 -1647 941 -95 14 -486 27 -550 18z m433 -264 c533 -57 1006 -284 1387
-665 441 -441 675 -1004 675 -1625 0 -621 -234 -1184 -675 -1625 -441 -441
-1004 -675 -1625 -675 -621 0 -1186 235 -1625 675 -442 442 -675 1004 -675
1625 0 621 234 1184 675 1625 372 372 828 596 1345 660 130 16 389 18 518 5z"/>
<path d="M2380 4614 c-14 -2 -65 -9 -115 -15 -123 -15 -329 -69 -455 -119
-684 -271 -1160 -861 -1287 -1595 -24 -141 -24 -509 0 -650 40 -228 114 -449
218 -644 44 -82 136 -228 161 -256 5 -6 215 197 548 530 l540 540 809 -809
c773 -773 811 -809 833 -798 13 7 33 21 45 30 23 17 21 19 -831 871 l-854 854
-454 -454 c-250 -250 -484 -483 -521 -518 l-68 -65 -69 69 -70 70 592 592 593
593 936 -936 937 -937 36 29 c20 16 36 34 36 39 0 13 -1932 1945 -1945 1945
-6 0 -253 -243 -550 -540 l-540 -540 -72 72 -73 73 1232 1232 1232 1232 -30
11 c-54 21 -208 59 -304 75 -90 16 -453 29 -510 19z"/>
<path d="M2785 3780 l-650 -650 975 -975 c536 -536 977 -975 980 -975 9 0 135
162 188 241 156 234 268 519 319 814 24 141 24 509 0 650 -112 649 -499 1190
-1068 1494 l-95 50 -649 -649z m748 452 l68 -69 -513 -514 c-283 -283 -549
-548 -591 -588 l-78 -75 -69 69 -70 70 587 587 c324 324 590 588 593 588 3 0
36 -31 73 -68z m52 -382 l70 -70 -510 -510 -510 -510 -72 72 -73 73 507 507
c280 280 510 508 513 508 3 0 37 -32 75 -70z"/>
<path d="M1512 1637 l-472 -472 77 -76 c306 -299 684 -490 1118 -566 153 -26
520 -24 675 5 144 26 265 61 403 114 l107 42 -712 713 c-392 392 -715 713
-718 713 -3 0 -218 -213 -478 -473z"/>
</g>
</svg>
